<?xml version="1.0" encoding="utf-8"?>
<!-- Generator: Adobe Illustrator 16.0.0, SVG Export Plug-In . SVG Version: 6.00 Build 0)  -->
<!DOCTYPE svg PUBLIC "-//W3C//DTD SVG 1.1//EN" "http://www.w3.org/Graphics/SVG/1.1/DTD/svg11.dtd">
<svg version="1.1" id="Layer_1" xmlns="http://www.w3.org/2000/svg" xmlns:xlink="http://www.w3.org/1999/xlink" x="0px" y="0px"
	 width="680px" height="680px" viewBox="0 0 680 680" enable-background="new 0 0 680 680" xml:space="preserve">
<polygon fill="none" points="-591.481,424.654 -726.287,424.654 -726.287,524.62 "/>
<polygon fill="none" points="-734.787,528.819 -734.787,424.654 -955.249,424.654 -1095.708,528.819 "/>
<polygon fill="none" points="-960.899,160.134 -960.899,60.168 -1095.708,160.134 "/>
<polygon fill="none" points="-1104.328,524.627 -960.899,418.269 -960.899,168.634 -1104.328,168.634 "/>
<polygon fill="#552D90" points="-726.287,524.62 -726.287,424.654 -734.787,424.654 -734.787,528.819 -1095.708,528.819 
	-955.249,424.654 -960.899,424.654 -960.899,418.269 -1104.328,524.627 -1104.328,168.634 -960.899,168.634 -960.899,160.134 
	-1095.708,160.134 -960.899,60.168 -960.899,49.581 -1112.828,162.243 -1112.828,537.313 -729.132,537.313 -577.208,424.654 
	-591.481,424.654 "/>
<path fill="#552D90" d="M-958.054,47.471l-2.845,2.11v10.588v99.966v8.5v249.634v6.386h5.65h220.461h8.5h134.806h14.273l2.85-2.113
	V47.471H-958.054z M-734.788,416.154h-217.611v-247.52h217.611V416.154L-734.788,416.154L-734.788,416.154z M-731.942,160.134
	h-220.457V55.971h360.921L-731.942,160.134z M-582.858,416.154h-143.429V166.521l143.429-106.358V416.154z"/>
<g>
	<path fill="#552D90" d="M-800.552,563.646c2.127,2.391,5.79,2.604,8.18,0.477l30.134-26.809l-17.786,0.315l-20.048,17.837
		C-802.464,557.593-802.678,561.256-800.552,563.646z"/>
</g>
<g>
	<path fill="#FFFFFF" d="M-814.332,284.587c0,3.604-0.416,7.1-1.247,10.492c-0.831,3.396-1.869,6.647-3.116,9.764
		c-1.246,3.116-2.597,6.061-4.051,8.83c-1.454,2.771-2.876,5.265-4.259,7.479l-15.997,27.008c-1.525,1.94-2.701,4.33-3.531,7.167
		c-0.831,2.841-1.247,5.577-1.247,8.206v6.232h-38.226v-6.232c0-3.876,0.863-8.445,2.597-13.711
		c1.729-5.263,4.188-10.804,7.375-16.62l15.789-27.008c2.214-3.876,3.739-7.512,4.569-10.907c0.831-3.392,1.247-6.336,1.247-8.829
		c0-6.093-0.866-10.871-2.598-14.335c-1.733-3.46-5.369-5.193-10.906-5.193c-4.019,0-7.203,2.009-9.557,6.024
		c-2.356,4.019-3.532,9.557-3.532,16.62h-40.303c0-7.615,1.21-14.818,3.635-21.605c2.422-6.785,5.921-12.706,10.492-17.763
		c4.57-5.054,10.144-9.037,16.724-11.945c6.576-2.909,14.09-4.363,22.541-4.363c9.558,0,17.728,1.178,24.516,3.532
		c6.784,2.356,12.325,5.713,16.619,10.076c4.292,4.363,7.442,9.696,9.452,15.997C-815.339,269.804-814.332,276.833-814.332,284.587z
		 M-844.872,416.924c0,3.601-1.038,6.301-3.116,8.103c-2.077,1.799-5.265,2.701-9.556,2.701h-31.163v-41.759h43.835V416.924
		L-844.872,416.924z"/>
</g>
<circle fill="#FFFFFF" cx="202.5" cy="293.447" r="40"/>
<circle fill="#FFFFFF" cx="440.5" cy="293.447" r="40"/>
</svg>
