<?xml version="1.0" encoding="utf-8"?>
<!-- Generator: Adobe Illustrator 16.0.0, SVG Export Plug-In . SVG Version: 6.00 Build 0)  -->
<!DOCTYPE svg PUBLIC "-//W3C//DTD SVG 1.1//EN" "http://www.w3.org/Graphics/SVG/1.1/DTD/svg11.dtd">
<svg version="1.1" id="Layer_1" xmlns="http://www.w3.org/2000/svg" xmlns:xlink="http://www.w3.org/1999/xlink" x="0px" y="0px"
	 width="680px" height="680px" viewBox="0 0 680 680" enable-background="new 0 0 680 680" xml:space="preserve">
<polygon fill="none" points="-591.481,424.654 -726.287,424.654 -726.287,524.62 "/>
<polygon fill="none" points="-734.787,528.819 -734.787,424.654 -955.249,424.654 -1095.708,528.819 "/>
<polygon fill="none" points="-960.899,160.134 -960.899,60.168 -1095.708,160.134 "/>
<polygon fill="none" points="-1104.328,524.627 -960.899,418.269 -960.899,168.634 -1104.328,168.634 "/>
<polygon fill="#552D90" points="-726.287,524.62 -726.287,424.654 -734.787,424.654 -734.787,528.819 -1095.708,528.819 
	-955.249,424.654 -960.899,424.654 -960.899,418.269 -1104.328,524.627 -1104.328,168.634 -960.899,168.634 -960.899,160.134 
	-1095.708,160.134 -960.899,60.168 -960.899,49.581 -1112.828,162.243 -1112.828,537.313 -729.132,537.313 -577.208,424.654 
	-591.481,424.654 "/>
<path fill="#552D90" d="M-958.054,47.471l-2.845,2.11v10.588v99.966v8.5v249.634v6.386h5.65h220.461h8.5h134.806h14.273l2.85-2.113
	V47.471H-958.054z M-734.788,416.154h-217.611v-247.52h217.611V416.154L-734.788,416.154L-734.788,416.154z M-731.942,160.134
	h-220.457V55.971h360.921L-731.942,160.134z M-582.858,416.154h-143.429V166.521l143.429-106.358V416.154z"/>
<g>
	<path fill="#552D90" d="M-800.552,563.646c2.127,2.391,5.79,2.604,8.18,0.477l30.134-26.809l-17.786,0.315l-20.048,17.837
		C-802.464,557.593-802.678,561.256-800.552,563.646z"/>
</g>
<g>
	<path fill="none" stroke="#FFFFFF" stroke-miterlimit="10" d="M66.172,532.414c-2.946,1.251-4.32,4.65-3.07,7.597
		c1.25,2.945,4.651,4.32,7.596,3.068l85.004-36.076l-16.952-5.393L66.172,532.414z"/>
</g>
<g>
	<path fill="none" stroke="#FFFFFF" stroke-miterlimit="10" d="M45.786,559.502c-4.716,2.002-7.525,6.013-6.275,8.957
		c1.25,2.944,6.087,3.71,10.803,1.709L180.531,514.9l-16.953-5.393L45.786,559.502z"/>
</g>
<g>
	<path fill="none" stroke="#FFFFFF" stroke-miterlimit="10" d="M244.75,580.354c1.267,2.938,6.107,3.675,10.812,1.648l57.725-24.875
		l-16.982-5.298l-45.328,19.533C246.271,573.39,243.484,577.416,244.75,580.354z"/>
</g>
<g>
	<path fill="none" stroke="#FFFFFF" stroke-miterlimit="10" d="M81.808,561.871c-4.716,2.003-7.526,6.013-6.276,8.957
		c1.25,2.944,6.086,3.711,10.803,1.709l117.978-50.072l-16.953-5.393L81.808,561.871z"/>
</g>
<g>
	<path fill="none" stroke="#FFFFFF" stroke-miterlimit="10" d="M186.496,577.396c-4.716,2.003-7.526,6.013-6.275,8.957
		c1.25,2.945,6.086,3.711,10.802,1.709l94.04-39.912l-16.952-5.393L186.496,577.396z"/>
</g>
<g>
	<path fill="none" stroke="#FFFFFF" stroke-miterlimit="10" d="M258.174,591.726c-4.716,2.003-7.525,6.013-6.275,8.958
		c1.25,2.944,6.087,3.71,10.803,1.708l82.63-35.07l-16.952-5.392L258.174,591.726z"/>
</g>
<g>
	<path fill="#FFFFFF" d="M-814.332,284.587c0,3.604-0.416,7.1-1.247,10.492c-0.831,3.396-1.869,6.647-3.116,9.764
		c-1.246,3.116-2.597,6.061-4.051,8.83c-1.454,2.771-2.876,5.265-4.259,7.479l-15.997,27.008c-1.525,1.94-2.701,4.33-3.531,7.167
		c-0.831,2.841-1.247,5.577-1.247,8.206v6.232h-38.226v-6.232c0-3.876,0.863-8.445,2.597-13.711
		c1.729-5.263,4.188-10.804,7.375-16.62l15.789-27.008c2.214-3.876,3.739-7.512,4.569-10.907c0.831-3.392,1.247-6.336,1.247-8.829
		c0-6.093-0.866-10.871-2.598-14.335c-1.733-3.46-5.369-5.193-10.906-5.193c-4.019,0-7.203,2.009-9.557,6.024
		c-2.356,4.019-3.532,9.557-3.532,16.62h-40.303c0-7.615,1.21-14.818,3.635-21.605c2.422-6.785,5.921-12.706,10.492-17.763
		c4.57-5.054,10.144-9.037,16.724-11.945c6.576-2.909,14.09-4.363,22.541-4.363c9.558,0,17.728,1.178,24.516,3.532
		c6.784,2.356,12.325,5.713,16.619,10.076c4.292,4.363,7.442,9.696,9.452,15.997C-815.339,269.804-814.332,276.833-814.332,284.587z
		 M-844.872,416.924c0,3.601-1.038,6.301-3.116,8.103c-2.077,1.799-5.265,2.701-9.556,2.701h-31.163v-41.759h43.835V416.924
		L-844.872,416.924z"/>
</g>
<g transform="translate(0,-952.36218)">
	<path d="M333.131,1030.284v144.775l-229.927-72.478C179.83,1078.357,256.595,1054.648,333.131,1030.284z"/>
	<path d="M345.333,1030.284l229.738,72.297l-229.738,72.478V1030.284z"/>
	<path d="M88.903,1110.963l244.228,76.86v180.643l-244.228,77.043V1110.963z"/>
	<path d="M589.56,1110.963v334.545l-244.227-77.043v-180.643L589.56,1110.963z"/>
	<path d="M339.233,1379.552l236.024,74.342l-236.024,74.249l-236.216-74.249L339.233,1379.552z"/>
</g>
<g>
	<path fill="#FFFFFF" d="M187.78,352.445v-7.342c0-11.18,0.167-17.02,12.848-28.699c14.85-13.682,16.686-17.019,16.686-25.695
		v-1.668c0-6.841-4.839-13.015-18.021-13.015c-10.345,0-18.854,4.338-26.029,11.18l-11.68-14.684
		c10.679-10.679,24.027-15.351,38.376-15.351c24.528,0,38.71,13.015,38.71,31.202v2.336c0,16.352-9.511,24.694-19.856,34.539
		c-8.509,8.176-11.179,10.679-11.179,20.356v6.841H187.78z M186.778,366.294h22.025v21.691h-22.025V366.294z"/>
</g>
<g>
	<path fill="#FFFFFF" d="M491.44,355.741v-7.342c0-11.18-0.166-17.02-12.848-28.699c-14.85-13.682-16.686-17.019-16.686-25.695
		v-1.668c0-6.841,4.839-13.015,18.021-13.015c10.345,0,18.854,4.338,26.029,11.18l11.68-14.684
		c-10.679-10.679-24.026-15.351-38.376-15.351c-24.528,0-38.711,13.015-38.711,31.202v2.336c0,16.352,9.511,24.694,19.855,34.539
		c8.51,8.176,11.18,10.679,11.18,20.356v6.841H491.44z M492.442,369.59h-22.025v21.691h22.025V369.59z"/>
</g>
</svg>
